# This file uses centimeters as units for non-parametric coordinates.

mtllib ChalkBoard.mtl
g default
v -5.000000 -3.000000 0.125000
v 5.000000 -3.000000 0.125000
v -5.000000 3.000000 0.125000
v 5.000000 3.000000 0.125000
v -5.000000 3.000000 -0.125000
v 5.000000 3.000000 -0.125000
v -5.000000 -3.000000 -0.125000
v 5.000000 -3.000000 -0.125000
v -5.125000 3.125000 0.125000
v 5.125000 3.125000 0.125000
v 5.125000 3.125000 -0.125000
v -5.125000 3.125000 -0.125000
v -5.125000 -3.125000 -0.125000
v 5.125000 -3.125000 -0.125000
v 5.125000 -3.125000 0.125000
v -5.125000 -3.125000 0.125000
v -5.000000 3.000000 0.250000
v 5.000000 3.000000 0.250000
v -5.000000 -3.000000 0.250000
v 5.000000 -3.000000 0.250000
v 5.125000 3.125000 0.218753
v 5.093753 3.093753 0.250000
v -5.093753 3.093753 0.250000
v -5.125000 3.125000 0.218753
v -5.125000 -3.125000 0.218753
v -5.093753 -3.093753 0.250000
v 5.093753 -3.093753 0.250000
v 5.125000 -3.125000 0.218753
vt 0.577932 0.506437
vt 0.590221 0.506437
vt 0.590221 0.813669
vt 0.577932 0.813669
vt 0.573323 0.813669
vt 0.573323 0.506437
vt 0.571787 0.812133
vt 0.571787 0.507973
vt 0.547732 0.506437
vt 0.560022 0.506437
vt 0.560022 0.813669
vt 0.547732 0.813669
vt 0.564630 0.506437
vt 0.564630 0.813669
vt 0.566166 0.812133
vt 0.566166 0.507973
vt 0.535967 0.801380
vt 0.535967 0.506437
vt 0.542112 0.506437
vt 0.542112 0.801380
vt 0.530346 0.506437
vt 0.530346 0.801380
vt 0.524201 0.801380
vt 0.524201 0.506437
vt 0.007970 0.505852
vt 0.007970 0.001992
vt 0.020259 0.001992
vt 0.020259 0.505852
vt 0.003361 0.505852
vt 0.003361 0.001992
vt 0.001825 0.003528
vt 0.001825 0.504316
vt 0.341251 0.505852
vt 0.341251 0.001992
vt 0.353540 0.001992
vt 0.353540 0.505852
vt 0.358149 0.001992
vt 0.358149 0.505852
vt 0.359685 0.504316
vt 0.359685 0.003528
vt 0.607607 0.998008
vt 0.607607 0.506437
vt 0.613752 0.506437
vt 0.613752 0.998008
vt 0.601986 0.506437
vt 0.601986 0.998008
vt 0.595842 0.998008
vt 0.595842 0.506437
vt 0.619373 0.998008
vt 0.619373 0.506437
vt 0.914315 0.506437
vt 0.914315 0.998008
vt 0.033145 0.499708
vt 0.033145 0.008137
vt 0.328088 0.008137
vt 0.328088 0.499708
vt 0.027001 0.505852
vt 0.027001 0.001992
vt 0.334233 0.001992
vt 0.334233 0.505852
vt 0.665799 0.498172
vt 0.665799 0.006601
vt 0.670408 0.001992
vt 0.670408 0.502780
vt 0.370857 0.006601
vt 0.366248 0.001992
vt 0.370857 0.498172
vt 0.366248 0.502780
vn 0.000000 0.000000 1.000000
vn 0.000000 0.000000 1.000000
vn 0.000000 0.000000 1.000000
vn 0.000000 0.000000 1.000000
vn 0.000000 1.000000 0.000000
vn 0.000000 1.000000 0.000000
vn 0.000000 1.000000 0.000000
vn 0.000000 1.000000 0.000000
vn 0.000000 0.000000 -1.000000
vn 0.000000 0.000000 -1.000000
vn 0.000000 0.000000 -1.000000
vn 0.000000 0.000000 -1.000000
vn 0.000000 -1.000000 0.000000
vn 0.000000 -1.000000 0.000000
vn 0.000000 -1.000000 0.000000
vn 0.000000 -1.000000 0.000000
vn 1.000000 0.000000 0.000000
vn 1.000000 0.000000 0.000000
vn 1.000000 0.000000 0.000000
vn 1.000000 0.000000 0.000000
vn -1.000000 0.000000 0.000000
vn -1.000000 0.000000 0.000000
vn -1.000000 0.000000 0.000000
vn -1.000000 0.000000 0.000000
vn 0.000000 0.000000 -1.000000
vn 0.000000 0.000000 -1.000000
vn 0.000000 0.000000 -1.000000
vn 0.000000 0.000000 -1.000000
vn 0.000000 -1.000000 0.000000
vn 0.000000 -1.000000 0.000000
vn 0.000000 -1.000000 0.000000
vn 0.000000 -1.000000 0.000000
vn 0.000000 1.000000 0.000000
vn 0.000000 1.000000 0.000000
vn 0.000000 1.000000 0.000000
vn 0.000000 1.000000 0.000000
vn -1.000000 0.000000 0.000000
vn -1.000000 0.000000 0.000000
vn -1.000000 0.000000 0.000000
vn -1.000000 0.000000 0.000000
vn 1.000000 0.000000 0.000000
vn 1.000000 0.000000 0.000000
vn 1.000000 0.000000 0.000000
vn 1.000000 0.000000 0.000000
vn 0.707109 0.000000 0.707105
vn 0.707109 0.000000 0.707105
vn 0.707109 0.000000 0.707105
vn 0.707109 0.000000 0.707105
vn 0.000000 0.707107 0.707106
vn 0.000000 0.707107 0.707106
vn 0.000000 0.707107 0.707106
vn 0.000000 0.707107 0.707106
vn -0.707109 0.000000 0.707105
vn -0.707109 0.000000 0.707105
vn -0.707109 0.000000 0.707105
vn -0.707109 0.000000 0.707105
vn 0.000000 -0.707107 0.707106
vn 0.000000 -0.707107 0.707106
vn 0.000000 -0.707107 0.707106
vn 0.000000 -0.707107 0.707106
vn 0.000000 0.000000 1.000000
vn -0.000000 0.000000 1.000000
vn -0.000000 0.000000 1.000000
vn 0.000000 0.000000 1.000000
vn -0.000000 0.000000 1.000000
vn 0.000000 0.000000 1.000000
vn 0.000000 0.000000 1.000000
vn -0.000000 0.000000 1.000000
vn 0.000000 1.000000 0.000000
vn 0.000000 1.000000 0.000000
vn 0.000000 -1.000000 0.000000
vn 0.000000 -1.000000 0.000000
vn 1.000000 0.000000 0.000000
vn 1.000000 0.000000 0.000000
vn -1.000000 0.000000 0.000000
vn -1.000000 0.000000 0.000000
s off
g Frame
usemtl blinn2SG
f 1/49/1 2/50/2 4/51/3 3/52/4
s 1
usemtl blinn1SG
f 9/25/5 10/26/6 11/27/7 12/28/8
s 2
f 5/53/9 6/54/10 8/55/11 7/56/12
s 3
f 13/33/13 14/34/14 15/35/15 16/36/16
s 4
f 15/1/17 14/2/18 11/3/19 10/4/20
s 5
f 13/9/21 16/10/22 9/11/23 12/12/24
s 2
f 6/54/10 5/53/9 12/57/25 11/58/26
f 7/56/12 8/55/11 14/59/27 13/60/28
f 8/55/11 6/54/10 11/58/26 14/59/27
f 5/53/9 7/56/12 13/60/28 12/57/25
s off
f 3/41/29 4/42/30 18/43/31 17/44/32
f 2/45/33 1/46/34 19/47/35 20/48/36
f 4/17/37 2/18/38 20/19/39 18/20/40
f 1/21/41 3/22/42 17/23/43 19/24/44
f 21/5/45 22/7/46 27/8/47 28/6/48
f 22/31/49 21/30/50 24/29/51 23/32/52
f 23/15/53 24/14/54 25/13/55 26/16/56
f 26/39/57 25/38/58 28/37/59 27/40/60
s 6
f 17/61/61 18/62/62 22/63/63 23/64/64
f 20/65/65 19/67/66 26/68/67 27/66/68
f 18/62/62 20/65/65 27/66/68 22/63/63
f 19/67/66 17/61/61 23/64/64 26/68/67
s 1
f 10/26/6 9/25/5 24/29/69 21/30/70
s 3
f 16/36/16 15/35/15 28/37/71 25/38/72
s 4
f 15/1/17 10/4/20 21/5/73 28/6/74
s 5
f 9/11/23 16/10/22 25/13/75 24/14/76
